<svg width="141" height="557" viewBox="0 0 141 557" fill="none" xmlns="http://www.w3.org/2000/svg">
<path d="M31.2 15.45C28.3 17.75 25.75 20.85 23.55 24.75C21.35 28.75 20.25 33.05 20.25 37.65C20.25 41.25 20.9 44.4 22.2 47.1C23.5 49.8 25.3 52.05 27.6 53.85C29.9 55.75 32.6 57.15 35.7 58.05C38.8 58.95 42.15 59.4 45.75 59.4H122.55V83.1H47.4C40.9 83.1 34.8 82.15 29.1 80.25C23.4 78.35 18.5 75.5 14.4 71.7C10.2 67.9 6.95 63.1 4.65 57.3C2.35 51.6 1.3 44.95 1.5 37.35C1.8 30.95 3.2 24.9 5.7 19.2C8.1 13.6 11.45 8.55 15.75 4.05L31.2 15.45ZM122.55 127.804H4.5V104.104H122.55V127.804ZM85.95 215.681L4.5 197.081V175.331L122.55 142.481V165.131L44.25 186.131L122.55 204.431V227.081L44.25 245.381L122.55 266.381V289.031L4.5 256.181V234.431L85.95 215.681ZM63.75 296.971C73.05 296.971 81.5 298.571 89.1 301.771C96.8 304.971 103.35 309.421 108.75 315.121C114.15 320.821 118.3 327.521 121.2 335.221C124.2 343.021 125.7 351.421 125.7 360.421C125.7 369.521 124.2 377.921 121.2 385.621C118.3 393.421 114.15 400.121 108.75 405.721C103.35 411.421 96.8 415.821 89.1 418.921C81.5 422.121 73.05 423.721 63.75 423.721C54.35 423.721 45.8 422.121 38.1 418.921C30.5 415.821 24 411.421 18.6 405.721C13.1 400.121 8.9 393.421 6 385.621C3 377.921 1.5 369.521 1.5 360.421C1.5 351.421 3 343.021 6 335.221C8.9 327.521 13.1 320.821 18.6 315.121C24 309.421 30.5 304.971 38.1 301.771C45.8 298.571 54.35 296.971 63.75 296.971ZM63.75 320.671C57.05 320.671 51 321.721 45.6 323.821C40.3 325.921 35.75 328.771 31.95 332.371C28.25 335.971 25.4 340.171 23.4 344.971C21.4 349.871 20.4 355.021 20.4 360.421C20.4 365.921 21.4 371.071 23.4 375.871C25.4 380.671 28.25 384.871 31.95 388.471C35.75 392.071 40.3 394.871 45.6 396.871C51 398.971 57.05 400.021 63.75 400.021C70.35 400.021 76.25 398.971 81.45 396.871C86.75 394.871 91.25 392.071 94.95 388.471C98.75 384.871 101.65 380.671 103.65 375.871C105.65 371.071 106.65 365.921 106.65 360.421C106.65 354.921 105.65 349.721 103.65 344.821C101.65 340.021 98.75 335.821 94.95 332.221C91.25 328.621 86.75 325.771 81.45 323.671C76.25 321.671 70.35 320.671 63.75 320.671ZM122.55 442.5V466.05L37.2 521.55H122.55V545.25H4.5V521.55L89.4 466.2H4.5V442.5H122.55Z" fill="white"/>
<path d="M37.1953 521.535H60.9966V545.27H37.1953V521.535Z" fill="black"/>
</svg>
