<svg width="179" height="39" viewBox="0 0 179 39" fill="none" xmlns="http://www.w3.org/2000/svg">
<path d="M3.61075 29.6682C4.33923 30.5786 5.3211 31.3792 6.55636 32.0699C7.82329 32.7606 9.18524 33.1059 10.6422 33.1059C11.7824 33.1059 12.7801 32.9019 13.6353 32.4937C14.4905 32.0856 15.2031 31.5205 15.7733 30.7984C16.3751 30.0763 16.8185 29.2286 17.1035 28.2554C17.3886 27.2822 17.5311 26.2304 17.5311 25.1002V0.988938H25.0377V24.5822C25.0377 26.6229 24.7368 28.538 24.135 30.3275C23.5332 32.117 22.6305 33.6553 21.4269 34.9425C20.2234 36.2611 18.703 37.2814 16.866 38.0035C15.0606 38.7256 12.9544 39.0553 10.5472 38.9925C8.5201 38.8983 6.60387 38.4587 4.79849 37.6739C3.02479 36.9204 1.4253 35.8687 0 34.5187L3.61075 29.6682Z" fill="black"/>
<path d="M39.1967 0.988938V38.0506H31.6902V0.988938H39.1967Z" fill="black"/>
<path d="M67.0304 12.4795L61.1392 38.0506H54.2503L43.8456 0.988938H51.0196L57.671 25.5711L63.4672 0.988938H70.6412L76.4374 25.5711L83.0888 0.988938H90.2628L79.8581 38.0506H72.9692L67.0304 12.4795Z" fill="black"/>
<path d="M92.7774 19.4491C92.7774 16.5294 93.2842 13.8765 94.2978 11.4905C95.3113 9.07313 96.7208 7.01676 98.5261 5.32143C100.332 3.62611 102.454 2.32322 104.892 1.41277C107.363 0.470923 110.024 0 112.874 0C115.756 0 118.417 0.470923 120.856 1.41277C123.326 2.32322 125.448 3.62611 127.222 5.32143C129.027 7.01676 130.421 9.07313 131.403 11.4905C132.416 13.8765 132.923 16.5294 132.923 19.4491C132.923 22.4003 132.416 25.0845 131.403 27.5019C130.421 29.8879 129.027 31.9286 127.222 33.6239C125.448 35.3507 123.326 36.6692 120.856 37.5797C118.417 38.5215 115.756 38.9925 112.874 38.9925C110.024 38.9925 107.363 38.5215 104.892 37.5797C102.454 36.6692 100.332 35.3507 98.5261 33.6239C96.7208 31.9286 95.3113 29.8879 94.2978 27.5019C93.2842 25.0845 92.7774 22.4003 92.7774 19.4491ZM100.284 19.4491C100.284 21.5526 100.617 23.452 101.282 25.1473C101.947 26.8112 102.85 28.2397 103.99 29.4327C105.13 30.5943 106.46 31.4891 107.981 32.117C109.533 32.7449 111.164 33.0588 112.874 33.0588C114.616 33.0588 116.247 32.7449 117.768 32.117C119.288 31.4891 120.618 30.5943 121.758 29.4327C122.899 28.2397 123.786 26.8112 124.419 25.1473C125.084 23.452 125.417 21.5526 125.417 19.4491C125.417 17.3771 125.084 15.5248 124.419 13.8922C123.786 12.2283 122.899 10.8155 121.758 9.65393C120.618 8.46092 119.288 7.55047 117.768 6.92258C116.247 6.29468 114.616 5.98073 112.874 5.98073C111.132 5.98073 109.485 6.29468 107.933 6.92258C106.413 7.55047 105.082 8.46092 103.942 9.65393C102.802 10.8155 101.899 12.2283 101.234 13.8922C100.601 15.5248 100.284 17.3771 100.284 19.4491Z" fill="black"/>
<path d="M138.871 0.988938H146.33L163.909 27.7845V0.988938H171.415V38.0506H163.909L146.378 11.3963V38.0506H138.871V0.988938Z" fill="black"/>
<path d="M163.899 20.5928H171.449V27.8248H163.908L163.899 20.5928Z" fill="white"/>
<path d="M171.449 20.5928H179V27.8248H171.459L171.449 20.5928Z" fill="black"/>
</svg>
