<svg width="54" height="53" viewBox="0 0 54 53" fill="none" xmlns="http://www.w3.org/2000/svg">
<path d="M0 0H38C46.8366 0 54 7.16344 54 16V53H16C7.16344 53 0 45.8366 0 37V0Z" fill="white"/>
<path d="M11 39.9761C12.0226 39.5849 13.9723 38.7375 14.9548 37.9926M46 39.9761C44.7147 39.9761 42.3418 37.5123 41.452 37.5123C40.5621 37.5123 38.5847 40.2841 37.2006 39.9761C36.5967 39.8418 35.8799 39.4143 35.1898 38.9495M14.9548 37.9926C15.1756 37.8252 15.3476 37.663 15.4492 37.5123C16.1412 36.4857 18.8107 39.9761 19.8983 39.9761C20.9859 39.9761 24.0508 37.5123 24.3475 37.5123C24.6441 37.5123 27.0169 39.6681 28.5 39.9761C29.9831 40.2841 32.0593 37.2043 32.9492 37.5123C33.4508 37.6859 34.298 38.3489 35.1898 38.9495M14.9548 37.9926L13.6695 35.2538L43.6271 33.6113C41.4297 35.3223 36.666 38.7853 35.1898 38.9495M15.7458 33.3033C18.58 30.9422 22.6271 22.976 16.1412 10C21.4473 12.7718 32.3164 21.0665 33.3446 32.0715C30.4444 30.4631 22.8644 28.4579 15.7458 33.3033ZM25.9294 14.0037C28.8625 16.5359 35.0056 23.5098 36.113 31.1475C37.1017 31.0449 39.3164 31.0243 40.2655 31.7635C39.0791 27.4518 34.5508 17.8636 25.9294 14.0037Z" stroke="black" stroke-width="1.5" stroke-linecap="round" stroke-linejoin="round"/>
</svg>
