<svg width="54" height="53" viewBox="0 0 54 53" fill="none" xmlns="http://www.w3.org/2000/svg">
<path d="M0 0H38C46.8366 0 54 7.16344 54 16V53H16C7.16344 53 0 45.8366 0 37V0Z" fill="white"/>
<path fill-rule="evenodd" clip-rule="evenodd" d="M32.8207 10.0021C36.118 10.0861 38.7653 12.8014 38.7653 16.1389C38.7653 18.7615 37.1305 20.9995 34.8303 21.8789C37.2345 22.6718 39 24.9044 39 27.5903C39 30.9568 36.2264 33.6111 32.898 33.6111C30.8912 33.6111 29.0865 32.6459 27.9694 31.1419V37.9792L27.9673 38.1346C27.8854 41.388 25.2383 44 21.9847 44C18.7311 44 16.084 41.3314 16.0021 38.0762L16 37.9206C16 35.5599 17.3247 33.4817 19.2669 32.437C17.3247 31.4099 16 29.3607 16 27C16 24.6443 17.3191 22.5987 19.2545 21.5694C17.3191 20.5402 16 18.4946 16 16.1389C16 12.8014 18.6473 10.0861 21.9446 10.0021L22.102 10H32.6633L32.8207 10.0021ZM22.102 33.1389C19.5273 33.1389 17.4082 35.2948 17.4082 37.9206C17.4082 40.4813 19.4748 42.5833 21.9847 42.5833C24.5122 42.5833 26.5612 40.522 26.5612 37.9792V33.1389H22.102ZM32.898 23.2222C30.4352 23.2222 28.4388 25.1779 28.4388 27.5903C28.4388 30.0027 30.4352 31.9583 32.898 31.9583C35.3607 31.9583 37.3571 30.0027 37.3571 27.5903C37.3571 25.1779 35.3607 23.2222 32.898 23.2222ZM22.102 22.2778C19.5097 22.2778 17.4082 24.392 17.4082 27C17.4082 29.608 19.5097 31.7222 22.102 31.7222H26.5612V22.2778H22.102ZM27.9694 24.0385C28.5118 23.3082 29.2162 22.7051 30.0273 22.2778H27.9694V24.0385ZM22.102 11.4167C19.5097 11.4167 17.4082 13.5309 17.4082 16.1389C17.4082 18.7469 19.5097 20.8611 22.102 20.8611H26.5612V11.4167H22.102ZM28.2041 20.8611H32.6633C35.2556 20.8611 37.3571 18.7469 37.3571 16.1389C37.3571 13.5309 35.2556 11.4167 32.6633 11.4167H28.2041V20.8611Z" fill="black"/>
</svg>
