<svg width="54" height="53" viewBox="0 0 54 53" fill="none" xmlns="http://www.w3.org/2000/svg">
<path d="M0 0H38C46.8366 0 54 7.16344 54 16V53H16C7.16344 53 0 45.8366 0 37V0Z" fill="black"/>
<path d="M10 38.0755V12.4238C10 12.2493 10.0743 12.1496 10.2476 12.1496C10.6684 12.1496 11.0645 12.1496 11.6339 12.1246C12.2033 12.0997 12.8469 12.0997 13.5153 12.0748C14.1837 12.0499 14.9016 12.0499 15.669 12.0249C16.4365 12 17.1791 12 17.9218 12C19.9518 12 21.6352 12.2493 23.0215 12.7728C24.2642 13.1978 25.3974 13.896 26.3387 14.817C27.1364 15.6229 27.7528 16.592 28.1459 17.6588C28.5206 18.6977 28.7133 19.7943 28.7153 20.8996C28.7153 23.0434 28.2202 24.8134 27.2299 26.2094C26.2351 27.6035 24.8462 28.6633 23.2443 29.2507C21.5609 29.8739 19.7042 30.0983 17.6743 30.0983C17.0801 30.0983 16.684 30.0983 16.4365 30.0734C16.1889 30.0484 15.8423 30.0484 15.372 30.0484V38.0506C15.3775 38.0916 15.3748 38.1333 15.364 38.1732C15.3532 38.2132 15.3346 38.2505 15.3092 38.2831C15.2838 38.3156 15.2521 38.3427 15.2162 38.3627C15.1802 38.3827 15.1405 38.3953 15.0997 38.3996H10.2971C10.099 38.3996 10 38.2998 10 38.0755ZM15.3967 16.9608V25.3369C15.7433 25.3618 16.0651 25.3867 16.3622 25.3867H17.6743C18.6407 25.3879 19.6013 25.2365 20.5212 24.938C21.3103 24.7043 22.0154 24.2454 22.5511 23.6168C23.071 22.9936 23.3185 22.146 23.3185 21.0491C23.3418 20.2701 23.1443 19.5006 22.7492 18.8305C22.3364 18.1832 21.7293 17.6854 21.0163 17.4095C20.0869 17.043 19.0925 16.8733 18.0951 16.911C17.4514 16.911 16.8821 16.911 16.4117 16.9359C16.0733 16.9136 15.7336 16.922 15.3967 16.9608Z" fill="white"/>
<path d="M43.5143 23.8155C42.7668 23.4191 41.9664 23.1336 41.1378 22.968C40.2277 22.7604 39.2982 22.6518 38.3651 22.6439C37.8641 22.6265 37.3634 22.6853 36.8798 22.8184C36.5714 22.883 36.2979 23.0607 36.1124 23.317C35.9873 23.5192 35.9188 23.7518 35.9143 23.99C35.9258 24.2272 36.0126 24.4544 36.1619 24.6382C36.3965 24.9153 36.6824 25.1439 37.0036 25.3113C37.5729 25.6104 38.1671 25.8846 38.7612 26.1339C40.0987 26.5873 41.3783 27.1982 42.5736 27.9537C43.3866 28.4685 44.0588 29.1797 44.5293 30.0228C44.9271 30.8181 45.1227 31.7003 45.0987 32.5905C45.1187 33.7687 44.782 34.9252 44.1332 35.906C43.4427 36.9011 42.4792 37.6721 41.3606 38.1247C40.1475 38.6482 38.6622 38.9224 36.8798 38.9224C35.7496 38.927 34.6218 38.8184 33.513 38.5983C32.6399 38.4464 31.7908 38.1781 30.9879 37.8006C30.9016 37.757 30.8299 37.6889 30.7815 37.6047C30.7331 37.5206 30.7102 37.424 30.7156 37.3269V32.9893C30.7135 32.9467 30.7213 32.9042 30.7385 32.8652C30.7557 32.8263 30.7818 32.7919 30.8146 32.765C30.8495 32.7445 30.89 32.7359 30.9301 32.7404C30.9703 32.7449 31.0079 32.7622 31.0375 32.7899C31.9911 33.356 33.0268 33.7682 34.1071 34.0114C35.061 34.2613 36.0427 34.387 37.0283 34.3853C37.969 34.3853 38.6374 34.2607 39.083 34.0363C39.2818 33.9439 39.4502 33.7963 39.5686 33.6108C39.687 33.4254 39.7504 33.2098 39.7514 32.9893C39.7514 32.6403 39.5534 32.3162 39.1573 31.9922C38.7612 31.6681 37.9443 31.2942 36.7312 30.8205C35.4868 30.379 34.3051 29.7756 33.2159 29.0257C32.4402 28.4689 31.7975 27.745 31.3345 26.9067C30.9394 26.1194 30.7438 25.2459 30.7651 24.364C30.7688 23.3002 31.0597 22.2576 31.6068 21.3476C32.2357 20.3469 33.1384 19.5504 34.2062 19.0541C35.3697 18.4559 36.8303 18.1816 38.5879 18.1816C39.6152 18.1819 40.6411 18.2569 41.6576 18.406C42.3885 18.5056 43.1039 18.6983 43.7866 18.9794C43.8954 19.0182 43.9844 19.0989 44.0342 19.2037C44.0627 19.301 44.0793 19.4015 44.0837 19.5029V23.5663C44.0841 23.6147 44.0731 23.6625 44.0515 23.7059C44.03 23.7492 43.9986 23.7868 43.9599 23.8155C43.8159 23.8677 43.6583 23.8677 43.5143 23.8155Z" fill="white"/>
</svg>
