<svg width="54" height="53" viewBox="0 0 54 53" fill="none" xmlns="http://www.w3.org/2000/svg">
<path d="M0 0H38C46.8366 0 54 7.16344 54 16V53H16C7.16344 53 0 45.8366 0 37V0Z" fill="black"/>
<path d="M26.6509 32.3992H18.1259L16.3842 37.8223C16.3648 37.9211 16.3093 38.0091 16.2287 38.0688C16.1482 38.1286 16.0483 38.1559 15.9488 38.1453H11.6405C11.3884 38.1453 11.3196 38.0069 11.3884 37.73L18.7676 16.3377C18.8363 16.1069 18.9051 15.853 18.9967 15.5761C19.089 15.0815 19.135 14.5793 19.1342 14.0761C19.1274 14.0183 19.1424 13.96 19.1764 13.913C19.2104 13.8659 19.2608 13.8335 19.3176 13.8223H25.253C25.4363 13.8223 25.528 13.8915 25.5509 14.0069L33.9155 37.7761C33.9842 38.03 33.9155 38.1453 33.6863 38.1453H28.8967C28.8157 38.1532 28.7346 38.1321 28.6675 38.0856C28.6004 38.0392 28.5518 37.9705 28.5301 37.8915L26.6509 32.3992ZM19.4551 27.7146H25.2759C25.1384 27.23 24.9551 26.653 24.7488 26.053C24.5426 25.453 24.3363 24.7607 24.1301 24.0684C23.9238 23.3761 23.6946 22.6607 23.4655 21.9453C23.2363 21.23 23.0301 20.5607 22.8467 19.8915C22.6634 19.2223 22.503 18.6453 22.3426 18.0915H22.2967C22.0908 19.0973 21.8307 20.0911 21.5176 21.0684C21.1738 22.1761 20.8301 23.33 20.4634 24.4838C20.1426 25.6607 19.7988 26.7453 19.4551 27.7146Z" fill="white"/>
<path d="M38.9103 17.769C38.5341 17.7773 38.1601 17.7101 37.8099 17.5714C37.4598 17.4328 37.1405 17.2254 36.8707 16.9613C36.3457 16.3832 36.066 15.6212 36.0916 14.8382C36.078 14.4567 36.1445 14.0766 36.2867 13.7227C36.4288 13.3688 36.6434 13.0491 36.9166 12.7843C37.4674 12.2601 38.1982 11.9707 38.9561 11.9767C39.8499 11.9767 40.5374 12.2536 41.0416 12.7843C41.5493 13.3439 41.8205 14.0806 41.7978 14.8382C41.8118 15.2281 41.748 15.6169 41.6103 15.9815C41.4725 16.3462 41.2635 16.6793 40.9957 16.9613C40.7257 17.2382 40.3998 17.4537 40.0401 17.593C39.6803 17.7323 39.2951 17.7923 38.9103 17.769ZM36.3436 37.7997V20.0305C36.3436 19.7997 36.4353 19.7074 36.6416 19.7074H41.1791C41.3853 19.7074 41.477 19.8228 41.477 20.0305V37.7997C41.477 38.0536 41.3853 38.169 41.1791 38.169H36.6874C36.6392 38.173 36.5908 38.166 36.5457 38.1485C36.5006 38.131 36.46 38.1034 36.427 38.0679C36.3939 38.0324 36.3693 37.9899 36.3548 37.9434C36.3404 37.897 36.3366 37.8479 36.3436 37.7997Z" fill="white"/>
</svg>
