<svg width="54" height="53" viewBox="0 0 54 53" fill="none" xmlns="http://www.w3.org/2000/svg">
<path d="M0 0H38C46.8366 0 54 7.16344 54 16V53H16C7.16344 53 0 45.8366 0 37V0Z" fill="white"/>
<path d="M41.7667 23.3221C42.5466 20.9379 42.2765 18.328 41.0264 16.1608C39.146 12.8379 35.3672 11.1285 31.677 11.9316C28.4604 8.29892 22.9533 8.00163 19.3752 11.2673C18.2398 12.3038 17.3925 13.6246 16.919 15.0985C14.4946 15.6037 12.4024 17.1447 11.1775 19.3277C9.27706 22.6453 9.70846 26.8305 12.2443 29.6771C11.4619 32.0601 11.7294 34.6706 12.9782 36.8385C14.8605 40.1627 18.642 41.8721 22.3341 41.0677C23.9767 42.9455 26.3358 44.0143 28.8095 43.9999C32.5923 44.0031 35.9436 41.5235 37.0985 37.8665C39.5224 37.3607 41.6145 35.8197 42.8401 33.6373C44.7178 30.3256 44.2845 26.1629 41.7667 23.3228V23.3221ZM28.8095 41.7096C27.2996 41.7123 25.837 41.1749 24.6782 40.1916L24.8823 40.0745L31.745 36.0519C32.0922 35.8447 32.3066 35.4671 32.3092 35.058V25.2328L35.2104 26.937C35.2395 26.9521 35.2596 26.9804 35.2648 27.0127V35.154C35.257 38.7709 32.3714 41.7011 28.8095 41.709V41.7096ZM14.935 35.6934C14.1778 34.3661 13.9058 32.8099 14.1675 31.2984L14.3715 31.4227L21.2407 35.4448C21.5866 35.6513 22.0161 35.6513 22.362 35.4448L30.7533 30.5328V33.9346C30.7514 33.9701 30.7339 34.003 30.7061 34.0241L23.7552 38.0947C20.6662 39.9015 16.7202 38.8275 14.9357 35.6934H14.935ZM13.1279 20.5143C13.8902 19.1778 15.0937 18.159 16.5252 17.6374V25.9169C16.52 26.324 16.7331 26.7022 17.0823 26.9035L25.4328 31.795L22.5316 33.4992C22.4999 33.5163 22.4617 33.5163 22.43 33.4992L15.4927 29.4351C12.4102 27.6211 11.3531 23.6168 13.1279 20.4794V20.5143ZM36.9632 26.1372L28.5854 21.197L31.4794 19.5001C31.5112 19.483 31.5494 19.483 31.5811 19.5001L38.5184 23.5708C41.6061 25.3802 42.6645 29.389 40.8826 32.5238C40.1325 33.8438 38.953 34.8568 37.5468 35.3895V27.11C37.5345 26.7035 37.3123 26.3339 36.9625 26.1372H36.9632ZM39.8508 21.7285L39.6467 21.6041L32.7911 17.5473C32.4426 17.3401 32.0112 17.3401 31.6634 17.5473L23.2791 22.4592V19.0574C23.2759 19.0226 23.2915 18.9877 23.32 18.968L30.2572 14.9039C33.3494 13.0951 37.3006 14.1738 39.0819 17.3138C39.8346 18.6398 40.1066 20.1913 39.8514 21.6995V21.7271L39.8508 21.7285ZM21.6961 27.7585L18.7949 26.0616C18.7657 26.0438 18.7456 26.0129 18.7405 25.9787V17.8577C18.745 14.2336 21.6423 11.3001 25.2107 11.3047C26.7167 11.3067 28.1754 11.8428 29.3335 12.8208L29.1295 12.9379L22.2667 16.9606C21.9195 17.1678 21.7051 17.5453 21.7026 17.9544L21.6961 27.7585ZM23.272 24.3087L27.0088 22.1218L30.7527 24.3087V28.6826L27.0224 30.8703L23.2791 28.6826L23.2727 24.3087H23.272Z" fill="black"/>
</svg>
